# xmcd
#
# Track frame offsets: 
#        150
#        18740
#        36365
#        51797
#        66594
#        82881
#        99696
#        116803
#        129905
#        147535
#        161013
#        176041
#        192581
#        210601
#
# Disc length: 3007 seconds
#
# Revision: 3
# Processed by: cddbd v1.5.2PL0 Copyright (c) Steve Scherf et al.
# Submitted via: ExactAudioCopy v0.95a5
#
DISCID=d60bbd0e
DTITLE=Various Artist - HOT HITS COUNTRY VOL 57
DYEAR=1900
DGENRE=Country
TTITLE0=Vince Gill - Worlds Apart
TTITLE1=Faith Hill - You Can't Lose Me
TTITLE2=Travis Tritt - More Than You'll Ever Know
TTITLE3=Mindy McCready - Guys Do It All The Time
TTITLE4=Toby Keith - A Woman's Touch
TTITLE5=Trisha Yearwood - Believe Me Baby (I Lied)
TTITLE6=Collin Raye - Love Remains
TTITLE7=Jo Dee Messina - You're Not In Kansas Anymore
TTITLE8=Ty Herndon - Living In A Moment
TTITLE9=Joe Diffie - Whole Lotta Gone
TTITLE10=Michelle Wright - Nobody's Girl
TTITLE11=Paul Brandt - I Do
TTITLE12=Terri Clark - Suddenly Single
TTITLE13=John Berry - Change My Mind
EXTD=
EXTT0=
EXTT1=
EXTT2=
EXTT3=
EXTT4=
EXTT5=
EXTT6=
EXTT7=
EXTT8=
EXTT9=
EXTT10=
EXTT11=
EXTT12=
EXTT13=
PLAYORDER=
